<?xml version="1.0" encoding="utf-8"?>
<!-- Generator: Adobe Illustrator 23.0.1, SVG Export Plug-In . SVG Version: 6.00 Build 0)  -->
<svg version="1.1" id="Lager_1" xmlns="http://www.w3.org/2000/svg" xmlns:xlink="http://www.w3.org/1999/xlink" x="0px" y="0px"
	 viewBox="0 0 500 500" style="enable-background:new 0 0 500 500;" xml:space="preserve">
<style type="text/css">
	.st0{fill:none;stroke:#000000;stroke-width:5;stroke-miterlimit:10;}
	.st1{display:none;}
	.st2{display:inline;}
	.st3{display:inline;fill:none;stroke:#FFFFFF;stroke-width:4;stroke-linecap:round;stroke-miterlimit:10;}
	.st4{fill:none;stroke:#FFFFFF;stroke-width:2;stroke-linecap:round;stroke-miterlimit:10;}
</style>
<g>
	<g id="_x30_">
		<path d="M249.5,443C122.8,443,20,468.5,20,500h459C479,468.5,376.2,443,249.5,443z"/>
	</g>
	<g id="_x31_">
		<rect x="99" y="70" width="10" height="396"/>
	</g>
	<g id="_x32_">
		<rect x="99" y="70" width="198" height="10"/>
	</g>
	<g id="_x33_">
		<rect x="87.8" y="104" transform="matrix(0.7071 -0.7071 0.7071 0.7071 -36.6547 129.5044)" width="100.4" height="10"/>
	</g>
	<g id="_x34_">
		<rect x="283" y="73" width="5" height="73"/>
	</g>
	<path id="_x35_" class="st0" d="M283.2,145.5c-4.7-0.6-9.4,0.9-12.8,4.2c-2.7,2.7-3.6,3.7-4.5,5.5c-1.3,2.7,0.4,15.6,0,19.7
		c-0.4,4,1.3,9.8,15.5,7.6s18.2-7.8,18.2-10s-2-24-6.5-25.8C292.5,146.6,287.6,146.1,283.2,145.5z"/>
	<g id="_x36_" class="st1">
		<path class="st2" d="M286,180L286,180c-2.8,0-5,2.2-5,5v105c0,2.8,2.2,5,5,5l0,0c2.8,0,5-2.2,5-5V185C291,182.2,288.8,180,286,180
			z"/>
	</g>
	<g id="_x37_" class="st1">
		<path class="st2" d="M253.8,217.7l27.9-27.9c2-2,5.1-2,7.1,0l0,0c2,2,2,5.1,0,7.1l-27.9,27.9c-2,2-5.1,2-7.1,0l0,0
			C251.8,222.8,251.8,219.7,253.8,217.7z"/>
	</g>
	<g id="_x37__1_" class="st1">
		<path class="st2" d="M284.7,189.8L284.7,189.8c2-2,5.1-2,7.1,0l27.9,27.9c2,2,2,5.1,0,7.1l0,0c-2,2-5.1,2-7.1,0l-27.9-27.9
			C282.7,194.9,282.7,191.7,284.7,189.8z"/>
	</g>
	<g id="_x38_" class="st1">
		<path class="st2" d="M287.8,287.9L287.8,287.9c-2.4-1.4-5.4-0.6-6.8,1.8l-38.1,66c-1.4,2.4-0.6,5.4,1.8,6.8l0,0
			c2.4,1.4,5.4,0.6,6.8-1.8l38.1-66C291,292.4,290.2,289.3,287.8,287.9z"/>
	</g>
	<g id="_x38__1_" class="st1">
		<path class="st2" d="M283.5,287.6L283.5,287.6c-2.4,1.3-3.4,4.3-2.1,6.8l33.5,63.3c1.3,2.4,4.3,3.4,6.8,2.1l0,0
			c2.4-1.3,3.4-4.3,2.1-6.8l-33.5-63.3C289,287.2,286,286.3,283.5,287.6z"/>
	</g>
</g>
<g class="st1">
	<g id="_x39_" class="st2">
		<circle cx="276.5" cy="157.5" r="32.5"/>
	</g>
	<path id="_x31_0" class="st3" d="M255.8,176.3c5.2-3,18.5-2.6,40.3-0.6"/>
	<g id="_x31_0_1_" class="st2">
		<line class="st4" x1="253.5" y1="160.5" x2="260.5" y2="167.5"/>
		<line class="st4" x1="260.5" y1="160.5" x2="253.5" y2="167.5"/>
	</g>
	<g id="_x31_0_2_" class="st2">
		<line class="st4" x1="291.5" y1="160.5" x2="298.5" y2="167.5"/>
		<line class="st4" x1="298.5" y1="160.5" x2="291.5" y2="167.5"/>
	</g>
</g>
</svg>
